<svg width="16" height="16" viewBox="0 0 16 16" fill="none" xmlns="http://www.w3.org/2000/svg">
<path d="M10.97 4.96999C11.1109 4.83588 11.2983 4.76173 11.4928 4.76321C11.6873 4.76468 11.8736 4.84165 12.0124 4.97787C12.1513 5.1141 12.2317 5.29893 12.2369 5.49336C12.242 5.68779 12.1714 5.87661 12.04 6.01999L8.05 11.01C7.98139 11.0839 7.89859 11.1432 7.80653 11.1844C7.71448 11.2255 7.61507 11.2477 7.51425 11.2496C7.41343 11.2514 7.31327 11.2329 7.21976 11.1952C7.12624 11.1575 7.0413 11.1013 6.97 11.03L4.324 8.38399C4.25031 8.31532 4.19121 8.23252 4.15022 8.14052C4.10923 8.04853 4.08719 7.94921 4.08541 7.84851C4.08363 7.74781 4.10216 7.64778 4.13988 7.55439C4.1776 7.461 4.23374 7.37617 4.30496 7.30495C4.37618 7.23373 4.46102 7.17758 4.5544 7.13986C4.64779 7.10214 4.74782 7.08362 4.84852 7.08539C4.94923 7.08717 5.04854 7.10921 5.14054 7.15021C5.23254 7.1912 5.31534 7.2503 5.384 7.32399L7.478 9.41699L10.951 4.99199C10.9573 4.98429 10.9639 4.97694 10.971 4.96999H10.97Z" fill="black"/>
</svg>
