<svg width="18" height="18" viewBox="0 0 18 18" fill="none" xmlns="http://www.w3.org/2000/svg">
<path d="M12.375 9H14.625V6.75H12.375V9Z" fill="black" fill-opacity="0.5"/>
<path d="M0 4.5C0 3.90326 0.237053 3.33097 0.65901 2.90901C1.08097 2.48705 1.65326 2.25 2.25 2.25H15.75C16.3467 2.25 16.919 2.48705 17.341 2.90901C17.7629 3.33097 18 3.90326 18 4.5V13.5C18 14.0967 17.7629 14.669 17.341 15.091C16.919 15.5129 16.3467 15.75 15.75 15.75H2.25C1.65326 15.75 1.08097 15.5129 0.65901 15.091C0.237053 14.669 0 14.0967 0 13.5V4.5ZM9.5625 5.0625C9.5625 4.91332 9.50324 4.77024 9.39775 4.66475C9.29226 4.55926 9.14918 4.5 9 4.5C8.85082 4.5 8.70774 4.55926 8.60225 4.66475C8.49676 4.77024 8.4375 4.91332 8.4375 5.0625V12.9375C8.4375 13.0867 8.49676 13.2298 8.60225 13.3352C8.70774 13.4407 8.85082 13.5 9 13.5C9.14918 13.5 9.29226 13.4407 9.39775 13.3352C9.50324 13.2298 9.5625 13.0867 9.5625 12.9375V5.0625ZM2.25 6.1875C2.25 6.33668 2.30926 6.47976 2.41475 6.58525C2.52024 6.69074 2.66332 6.75 2.8125 6.75H6.75C6.89918 6.75 7.04226 6.69074 7.14775 6.58525C7.25324 6.47976 7.3125 6.33668 7.3125 6.1875C7.3125 6.03832 7.25324 5.89524 7.14775 5.78975C7.04226 5.68426 6.89918 5.625 6.75 5.625H2.8125C2.66332 5.625 2.52024 5.68426 2.41475 5.78975C2.30926 5.89524 2.25 6.03832 2.25 6.1875ZM2.8125 7.875C2.66332 7.875 2.52024 7.93426 2.41475 8.03975C2.30926 8.14524 2.25 8.28832 2.25 8.4375C2.25 8.58668 2.30926 8.72976 2.41475 8.83525C2.52024 8.94074 2.66332 9 2.8125 9H6.75C6.89918 9 7.04226 8.94074 7.14775 8.83525C7.25324 8.72976 7.3125 8.58668 7.3125 8.4375C7.3125 8.28832 7.25324 8.14524 7.14775 8.03975C7.04226 7.93426 6.89918 7.875 6.75 7.875H2.8125ZM2.25 10.6875C2.25 10.8367 2.30926 10.9798 2.41475 11.0852C2.52024 11.1907 2.66332 11.25 2.8125 11.25H6.75C6.89918 11.25 7.04226 11.1907 7.14775 11.0852C7.25324 10.9798 7.3125 10.8367 7.3125 10.6875C7.3125 10.5383 7.25324 10.3952 7.14775 10.2898C7.04226 10.1843 6.89918 10.125 6.75 10.125H2.8125C2.66332 10.125 2.52024 10.1843 2.41475 10.2898C2.30926 10.3952 2.25 10.5383 2.25 10.6875ZM11.25 6.1875V9.5625C11.25 9.71168 11.3093 9.85476 11.4148 9.96025C11.5202 10.0657 11.6633 10.125 11.8125 10.125H15.1875C15.3367 10.125 15.4798 10.0657 15.5852 9.96025C15.6907 9.85476 15.75 9.71168 15.75 9.5625V6.1875C15.75 6.03832 15.6907 5.89524 15.5852 5.78975C15.4798 5.68426 15.3367 5.625 15.1875 5.625H11.8125C11.6633 5.625 11.5202 5.68426 11.4148 5.78975C11.3093 5.89524 11.25 6.03832 11.25 6.1875Z" fill="black" fill-opacity="0.5"/>
</svg>
