<svg width="18" height="18" viewBox="0 0 18 18" fill="none" xmlns="http://www.w3.org/2000/svg">
<g clip-path="url(#clip0_9_6601)">
<path d="M15.3011 2.61674C14.4759 1.78388 13.4932 1.12358 12.4102 0.674325C11.3272 0.225069 10.1657 -0.00416084 8.99325 -5.53831e-06C4.08037 -5.53831e-06 0.0765 4.00274 0.072 8.91674C0.072 10.4906 0.48375 12.0217 1.26113 13.3774L0 18L4.7295 16.7602C6.03788 17.4723 7.50367 17.8455 8.99325 17.8459H8.99775C13.9117 17.8459 17.9145 13.8431 17.919 8.92462C17.9201 7.75242 17.6893 6.59158 17.2398 5.50898C16.7903 4.42639 16.1311 3.44343 15.3 2.61674H15.3011ZM8.99325 16.3361C7.66462 16.3366 6.36041 15.979 5.21775 15.3011L4.94775 15.1391L2.142 15.8749L2.89125 13.1377L2.71575 12.8554C1.97303 11.6745 1.58023 10.3073 1.58287 8.91224C1.58287 4.83299 4.9095 1.50524 8.99775 1.50524C9.97171 1.5035 10.9364 1.69455 11.8361 2.0674C12.7359 2.44024 13.553 2.9875 14.2402 3.67762C14.9299 4.36505 15.4766 5.18222 15.8489 6.082C16.2212 6.98179 16.4116 7.94637 16.4093 8.92012C16.4048 13.014 13.0781 16.3361 8.99325 16.3361ZM13.0601 10.7854C12.8385 10.674 11.7439 10.1351 11.538 10.0586C11.3332 9.98549 11.1836 9.94724 11.0374 10.17C10.8877 10.3916 10.4602 10.8967 10.332 11.0419C10.2037 11.1915 10.071 11.2084 9.84825 11.0981C9.62663 10.9856 8.90775 10.7516 8.05725 9.99C7.3935 9.39937 6.94912 8.66812 6.81637 8.44649C6.68813 8.22374 6.804 8.10449 6.91537 7.99312C7.01325 7.89412 7.137 7.73212 7.24837 7.60387C7.36087 7.47562 7.398 7.38112 7.47112 7.23262C7.54425 7.08187 7.50938 6.95362 7.45425 6.84224C7.398 6.73087 6.95362 5.63174 6.76575 5.18849C6.58575 4.75087 6.40237 4.81162 6.26512 4.80599C6.13687 4.79812 5.98725 4.79812 5.83763 4.79812C5.72463 4.80093 5.61344 4.82706 5.51103 4.87488C5.40862 4.9227 5.3172 4.99117 5.2425 5.07599C5.03775 5.29874 4.46513 5.83762 4.46513 6.93674C4.46513 8.03587 5.26388 9.09225 5.37637 9.24187C5.48662 9.39149 6.94462 11.6404 9.18225 12.6079C9.711 12.8385 10.1273 12.9746 10.4524 13.0781C10.9868 13.2491 11.4694 13.2232 11.8541 13.1681C12.2816 13.1029 13.1715 12.6281 13.3594 12.1072C13.5439 11.5852 13.5439 11.1397 13.4876 11.0464C13.4325 10.9519 13.2829 10.8967 13.0601 10.7854Z" fill="black" fill-opacity="0.5"/>
</g>
<defs>
<clipPath id="clip0_9_6601">
<rect width="18" height="18" fill="white"/>
</clipPath>
</defs>
</svg>
